<?xml version="1.0" standalone="no"?>
<!DOCTYPE svg PUBLIC "-//W3C//DTD SVG 20010904//EN"
 "http://www.w3.org/TR/2001/REC-SVG-20010904/DTD/svg10.dtd">
<svg version="1.0" xmlns="http://www.w3.org/2000/svg"
 width="192.000000pt" height="192.000000pt" viewBox="0 0 192.000000 192.000000"
 preserveAspectRatio="xMidYMid meet">

<g transform="translate(0.000000,192.000000) scale(0.100000,-0.100000)"
fill="#000000" stroke="none">
<path d="M1021 1257 c-8 -26 -17 -47 -21 -47 -4 0 -11 -17 -15 -37 -6 -31 -8
-34 -16 -20 -14 25 -25 21 -39 -13 -13 -32 -30 -40 -30 -15 0 25 -32 97 -40
88 -3 -4 -17 -43 -30 -86 -17 -55 -28 -76 -37 -73 -8 3 -18 -4 -23 -17 l-9
-22 -7 23 c-3 12 -10 22 -15 22 -4 0 -11 17 -15 37 l-7 38 -12 -30 c-17 -41
-45 -138 -41 -142 2 -2 127 -2 279 -1 l276 3 -51 105 c-27 58 -54 116 -59 129
-9 23 -10 23 -24 5 -11 -16 -14 -16 -18 -4 -3 8 -12 35 -19 59 l-14 45 -13
-47z"/>
<path d="M948 933 c6 -2 12 -11 12 -19 0 -8 5 -14 10 -14 7 0 7 6 0 20 -6 11
-16 20 -23 19 -9 0 -9 -2 1 -6z"/>
<path d="M885 920 c3 -5 8 -10 11 -10 2 0 4 5 4 10 0 6 -5 10 -11 10 -5 0 -7
-4 -4 -10z"/>
<path d="M820 836 c0 -8 7 -17 16 -20 14 -5 15 -4 5 8 -10 11 -8 15 6 19 14 4
13 5 -4 6 -14 1 -23 -5 -23 -13z"/>
<path d="M865 830 c-8 -25 1 -40 23 -39 15 1 15 2 -1 6 -23 6 -18 39 6 37 9
-1 17 2 17 7 0 18 -39 8 -45 -11z"/>
<path d="M935 841 c-3 -6 -3 -16 1 -23 4 -6 3 -8 -3 -5 -6 4 -13 1 -16 -6 -3
-7 4 -12 19 -12 20 0 22 4 17 25 -7 31 -9 34 -18 21z"/>
<path d="M1035 841 c-3 -6 -3 -16 1 -23 4 -6 3 -8 -3 -5 -6 4 -13 1 -16 -6 -3
-7 4 -12 19 -12 20 0 22 4 17 25 -7 31 -9 34 -18 21z"/>
<path d="M971 818 c-1 -21 4 -28 17 -28 11 0 13 3 6 8 -7 4 -14 16 -17 27 -4
15 -5 14 -6 -7z"/>
<path d="M828 793 c7 -3 16 -2 19 1 4 3 -2 6 -13 5 -11 0 -14 -3 -6 -6z"/>
</g>
</svg>
